<?xml version="1.0" encoding="utf-8"?>
<!-- Generator: Adobe Illustrator 16.0.0, SVG Export Plug-In . SVG Version: 6.00 Build 0)  -->
<!DOCTYPE svg PUBLIC "-//W3C//DTD SVG 1.1//EN" "http://www.w3.org/Graphics/SVG/1.1/DTD/svg11.dtd">
<svg version="1.1" id="Layer_1" xmlns="http://www.w3.org/2000/svg" xmlns:xlink="http://www.w3.org/1999/xlink" x="0px" y="0px"
	 width="500px" height="500px" viewBox="0 0 500 500" enable-background="new 0 0 500 500" xml:space="preserve">
<g>
	<path fill="#F4EFEF" d="M80.079,242.98h-6.632v-40.542l0.093-9.621l-5.325,6.352l-18.683,20.365l-17.095-16.908l-7.66-8.875
		l0.28,8.688l-0.094,40.542h-6.819v-66.511l31.387,33.256l30.546-33.256V242.98z"/>
	<path fill="#F4EFEF" d="M135.104,228.314c-4.297,9.995-13.545,15.414-22.513,15.414c-13.171,0-23.821-10.93-23.821-24.102
		c0-13.078,10.649-24.007,23.821-24.007c13.078,0,23.727,10.929,23.727,24.007c0,0.935,0,1.775-0.093,2.709h-8.594h-4.67H95.403
		c0,7.193,8.407,15.507,17.188,15.507c6.819,0,12.144-4.764,14.759-9.528C129.033,228.314,132.583,228.314,135.104,228.314z
		 M95.403,216.544l1.682-0.094h29.706l2.896,0.094c0-0.654-0.28-2.149-0.654-2.989c-2.896-7.474-8.594-11.957-16.441-11.957
		c-7.66,0-14.199,5.23-16.814,12.517C95.497,214.955,95.403,215.984,95.403,216.544z"/>
	<path fill="#F4EFEF" d="M166.028,244.287c-13.545,0-24.848-11.022-24.848-24.661c0-13.545,11.303-24.755,24.848-24.755
		c13.639,0,24.662,11.21,24.662,24.755C190.69,233.265,179.667,244.287,166.028,244.287z M166.028,237.749
		c9.996,0,17.749-7.66,17.749-18.123c0-10.462-7.753-18.216-17.749-18.216c-10.089,0-17.936,7.754-17.936,18.216
		C148.093,230.089,155.939,237.749,166.028,237.749z"/>
	<path fill="#F4EFEF" d="M265.798,196.273l-18.496,47.828l-14.292-29.986l-2.522-5.23l-2.429,5.324l-14.199,29.893l-19.43-47.828
		h7.006l10.649,28.585l2.055,5.138l4.391-8.781l12.05-25.875l12.05,24.754l3.924,8.314l1.681-4.951l10.369-27.184H265.798z"/>
	<path fill="#F4EFEF" d="M343.712,232.238c-4.018,6.445-11.304,11.21-19.617,11.21c-12.892,0-22.793-10.837-22.793-23.728
		c0-12.892,9.901-23.914,22.793-23.914c7.753,0,14.666,4.297,18.776,10.089l-5.512,3.55c-2.709-3.457-7.193-7.193-13.265-7.193
		c-9.715,0-16.441,7.193-16.441,17.469c0,9.154,7.007,17.655,16.161,17.655c5.885,0,10.742-4.017,13.451-7.566L343.712,232.238z"/>
	<path fill="#F4EFEF" d="M397.428,196.273v46.707h-6.259v-4.951v-1.868c-0.748,1.121-2.522,2.336-3.644,3.177
		c-4.11,3.176-8.874,4.67-14.666,4.67c-13.172,0-23.914-10.836-23.914-23.914c0-13.265,10.742-24.101,23.914-24.101
		c5.604,0,11.677,2.989,15.04,5.792c1.214,1.494,2.148,2.148,2.802,2.709v-2.989v-5.231H397.428z M391.262,220.281
		c0-9.622-8.78-18.31-18.496-18.31c-9.715,0-17.842,8.501-17.842,18.216c0,9.435,8.033,17.749,17.562,17.749
		C382.201,237.936,391.262,229.902,391.262,220.281z"/>
	<path fill="#F4EFEF" d="M431.247,202.625h-11.584v40.354h-6.726v-40.354h-6.539v-6.259h6.539v-8.968c0-0.188,0-0.28,0-0.467
		c0-6.446,4.671-10.837,11.396-11.21c7.193-0.188,9.716,3.27,11.304,4.857l-5.325,3.736c-2.241-2.335-5.138-2.615-6.445-2.242
		c-1.682,0.468-4.204,2.336-4.204,5.325v8.968h11.584V202.625z"/>
	<path fill="#F4EFEF" d="M487.951,228.127c-4.297,10.089-13.358,15.507-22.513,15.507c-13.078,0-23.728-10.93-23.728-24.008
		c0-13.265,10.649-24.194,23.728-24.194c13.172,0,23.914,10.93,23.914,24.194c0,0.841-0.094,1.682-0.094,2.616h-8.78h-4.484h-27.837
		c0,7.192,8.594,15.413,17.281,15.413c6.913,0,12.331-4.671,14.76-9.528C481.879,228.127,485.522,228.127,487.951,228.127z
		 M448.344,216.45l1.682-0.187h29.705l2.989,0.187c0-0.747-0.373-2.242-0.841-3.083c-2.896-7.473-8.5-11.957-16.44-11.957
		c-7.566,0-14.199,5.231-16.721,12.518C448.438,214.769,448.344,215.89,448.344,216.45z M461.889,191.696l-3.176-3.736
		l14.199-11.957l3.362,3.83L461.889,191.696z"/>
</g>
<path fill="none" stroke="#F4EFEF" stroke-width="4" stroke-linecap="round" stroke-linejoin="round" stroke-miterlimit="10" d="
	M184.257,181.691l40.865-148.6l12.383,27.243c0,0,19.812-9.906,28.479,0l11.147-27.243l44.58,148.6"/>
<circle fill="#F4EFEF" cx="240.051" cy="79.594" r="4.986"/>
<ellipse fill="#F4EFEF" cx="251.468" cy="97.884" rx="4.148" ry="2.691"/>
<line fill="none" stroke="#F4EFEF" stroke-miterlimit="10" x1="225.691" y1="98.492" x2="245.419" y2="96.557"/>
<line fill="none" stroke="#F4EFEF" stroke-miterlimit="10" x1="244.322" y1="99.845" x2="232.631" y2="107.152"/>
<line fill="none" stroke="#F4EFEF" stroke-miterlimit="10" x1="259.522" y1="97.16" x2="280.853" y2="98.748"/>
<line fill="none" stroke="#F4EFEF" stroke-miterlimit="10" x1="258.427" y1="98.748" x2="274.644" y2="103.006"/>
<line fill="none" stroke="#F4EFEF" stroke-miterlimit="10" x1="244.322" y1="97.954" x2="228.836" y2="103.498"/>
<line fill="none" stroke="#F4EFEF" stroke-miterlimit="10" x1="258.427" y1="95.097" x2="274.644" y2="93.635"/>
<circle fill="#F4EFEF" cx="264.964" cy="79.594" r="4.985"/>
</svg>
